<?xml version="1.0" standalone="no"?>
<!DOCTYPE svg PUBLIC "-//W3C//DTD SVG 1.1//EN" "http://www.w3.org/Graphics/SVG/1.1/DTD/svg11.dtd" >
<svg xmlns="http://www.w3.org/2000/svg">
<metadata>
Created by FontForge 20120731 at Wed Aug 10 09:24:46 2016
 By admin
</metadata>
<defs>
<font id="iconfont" horiz-adv-x="1024" >
  <font-face 
    font-family="iconfont"
    font-weight="500"
    font-stretch="normal"
    units-per-em="1024"
    panose-1="2 0 6 3 0 0 0 0 0 0"
    ascent="896"
    descent="-128"
    x-height="792"
    bbox="0 -128 1336.45 896"
    underline-thickness="50"
    underline-position="-100"
    unicode-range="U+0078-E618"
  />
<missing-glyph horiz-adv-x="374" 
d="M34 0v682h272v-682h-272zM68 34h204v614h-204v-614z" />
    <glyph glyph-name=".notdef" horiz-adv-x="374" 
d="M34 0v682h272v-682h-272zM68 34h204v614h-204v-614z" />
    <glyph glyph-name=".null" horiz-adv-x="0" 
 />
    <glyph glyph-name="nonmarkingreturn" horiz-adv-x="341" 
 />
    <glyph glyph-name="x" unicode="x" horiz-adv-x="1001" 
d="M281 543q-27 -1 -53 -1h-83q-18 0 -36.5 -6t-32.5 -18.5t-23 -32t-9 -45.5v-76h912v41q0 16 -0.5 30t-0.5 18q0 13 -5 29t-17 29.5t-31.5 22.5t-49.5 9h-133v-97h-438v97zM955 310v-52q0 -23 0.5 -52t0.5 -58t-10.5 -47.5t-26 -30t-33 -16t-31.5 -4.5q-14 -1 -29.5 -0.5
t-29.5 0.5h-32l-45 128h-439l-44 -128h-29h-34q-20 0 -45 1q-25 0 -41 9.5t-25.5 23t-13.5 29.5t-4 30v167h911zM163 247q-12 0 -21 -8.5t-9 -21.5t9 -21.5t21 -8.5q13 0 22 8.5t9 21.5t-9 21.5t-22 8.5zM316 123q-8 -26 -14 -48q-5 -19 -10.5 -37t-7.5 -25t-3 -15t1 -14.5
t9.5 -10.5t21.5 -4h37h67h81h80h64h36q23 0 34 12t2 38q-5 13 -9.5 30.5t-9.5 34.5q-5 19 -11 39h-368zM336 498v228q0 11 2.5 23t10 21.5t20.5 15.5t34 6h188q31 0 51.5 -14.5t20.5 -52.5v-227h-327z" />
    <glyph glyph-name="uniE600" unicode="&#xe600;" 
d="M878 713h-153q-12 33 -40 53t-63 20h-220q-35 0 -63 -20t-40 -53h-153q-60 0 -103 -43t-43 -103v-439q0 -61 43 -103.5t103 -42.5h732q60 0 103 42.5t43 103.5v439q0 60 -43 103t-103 43zM512 128q-91 0 -155 64.5t-64 155t64 155t155 64.5t155 -64.5t64 -155t-64 -155
t-155 -64.5zM512 494q-61 0 -103.5 -43t-42.5 -103.5t42.5 -103.5t103.5 -43t103.5 43t42.5 103.5t-42.5 103.5t-103.5 43z" />
    <glyph glyph-name="uniE601" unicode="&#xe601;" 
d="M881 832h-738q-57 0 -97.5 -39.5t-40.5 -96.5v-452q0 -56 40.5 -96t97.5 -40h103q36 -141 41 -160q2 -8 9.5 -10t13.5 4q5 5 36 37.5t70.5 75t49.5 53.5h415q57 0 97.5 40t40.5 96v452q0 57 -40.5 96.5t-97.5 39.5zM973 244q0 -38 -27 -64.5t-65 -26.5h-438
q-19 -19 -44.5 -48t-43.5 -51.5t-20 -24.5q-6 -6 -14 -3.5t-10 10.5q-3 11 -30 117h-138q-38 0 -65 26.5t-27 64.5v452q0 38 27 64.5t65 26.5h738q38 0 65 -26.5t27 -64.5v-452zM259 470q0 -19 13.5 -32t32 -13t32 13t13.5 32t-13.5 32.5t-32 13.5t-32 -13.5t-13.5 -32.5z
M467 470q0 -19 13 -32t32 -13t32 13t13 32t-13 32.5t-32 13.5t-32 -13.5t-13 -32.5zM674 470q0 -19 13 -32t32 -13t32.5 13t13.5 32t-13.5 32.5t-32.5 13.5t-32 -13.5t-13 -32.5zM674 470z" />
    <glyph glyph-name="uniE603" unicode="&#xe603;" 
d="M524 143l459 452q5 5 5 12.5t-5 13t-12.5 5.5t-13.5 -6l-446 -438l-444 444q-6 5 -13.5 5t-12.5 -5t-5 -12.5t5 -12.5l457 -458q6 -5 13 -5t13 5zM524 143z" />
    <glyph glyph-name="uniE604" unicode="&#xe604;" 
d="M835 660l-60 63l-263 -275v0l-263 275l-60 -63l262 -276l-262 -276l60 -63l263 275v0l263 -275l60 63l-262 276z" />
    <glyph glyph-name="uniE605" unicode="&#xe605;" 
d="M547 17h-39q-10 0 -17 -7t-7 -17t7 -17t17 -7h39q10 0 17 7t7 17t-7 17t-17 7zM591 99h-126q-10 0 -17 -7.5t-7 -17.5q0 -9 7 -16.5t17 -7.5h126q9 0 16.5 7.5t7.5 16.5q0 10 -7.5 17.5t-16.5 7.5zM528 676q-114 0 -195 -80.5t-81 -194.5t81 -194.5t195 -80.5t194.5 80.5
t80.5 194.5t-80.5 194.5t-194.5 80.5zM689 239q-67 -67 -161.5 -67t-161.5 67t-67 161.5t67 161.5t161.5 67t161.5 -67t67 -161.5t-67 -161.5zM419 433h64v-64h-64v64zM572 433h64v-64h-64v64z" />
    <glyph glyph-name="uniE606" unicode="&#xe606;" 
d="M532 -21h-39q-10 0 -17 -7t-7 -17t7 -17t17 -7h39q9 0 16.5 7t7.5 17t-7.5 17t-16.5 7zM512 684q10 0 17 7t7 17v39q0 10 -7 17t-17 7t-17 -7t-7 -17v-39q0 -10 7 -17t17 -7zM285 590q7 7 7 17t-7 17l-27 27q-7 7 -17 7t-17 -7t-7 -17t7 -17l27 -27q7 -7 17 -7t17 7z
M167 387h-39q-10 0 -17 -7t-7 -17t7 -17t17 -7h39q10 0 17 7t7 17t-7 17t-17 7zM896 387h-39q-10 0 -17 -7t-7 -17t7 -17t17 -7h39q10 0 17 7t7 17t-7 17t-17 7zM800 651q-7 7 -17 7t-17 -7l-27 -27q-7 -8 -7 -17.5t7 -17.5q7 -7 17 -7t17 7l27 28q7 7 7 17t-7 17zM575 60
h-126q-10 0 -17 -7t-7 -17t7 -17t17 -7h126q10 0 17 7t7 17t-7 17t-17 7zM512 638q-114 0 -194.5 -80.5t-80.5 -194.5t80.5 -194.5t194.5 -80.5t194.5 80.5t80.5 194.5t-80.5 194.5t-194.5 80.5zM674 201q-67 -67 -162 -67t-162 67t-67 161.5t67 161.5t162 67t162 -67
t67 -161.5t-67 -161.5z" />
    <glyph glyph-name="uniE607" unicode="&#xe607;" 
d="M512 486q-26 0 -45.5 -19t-19.5 -45t19.5 -45.5t45.5 -19.5q25 0 44 19.5t19 45.5q0 28 -18.5 46t-44.5 18zM303 486q-25 0 -44.5 -19t-19.5 -45t19 -45.5t45 -19.5t45.5 19.5t19.5 45.5q-1 28 -20 46t-45 18zM512 802q-124 0 -229 -50.5t-166.5 -137t-61.5 -187.5
q0 -146 128 -260l-47 -197l248 95q91 -18 128 -18q124 0 229 50t166.5 136.5t61.5 189.5t-61.5 190t-166.5 138t-229 51zM512 94q-64 0 -120 14h-8q-8 0 -17 -5l-171 -68l29 120q6 24 -13 43q-57 47 -87.5 106t-30.5 123q0 90 56 167t152.5 121.5t209.5 44.5t209.5 -44.5
t152.5 -121.5t56 -167t-56 -167t-152.5 -121.5t-209.5 -44.5zM721 486q-26 0 -45.5 -19t-19.5 -45t19.5 -45.5t45.5 -19.5t45 19.5t19 45.5q-3 29 -20.5 46.5t-43.5 17.5z" />
    <glyph glyph-name="uniE608" unicode="&#xe608;" 
d="M391 414h-232q-28 0 -48 20t-20 48v233q0 28 20 48t48 20h232q29 0 49 -20t20 -48v-233q0 -28 -20 -48t-49 -20zM159 737q-9 0 -15.5 -6.5t-6.5 -15.5v-233q0 -9 6.5 -15t15.5 -6h232q9 0 15.5 6t6.5 15v233q0 9 -6.5 15.5t-15.5 6.5h-232zM391 -14h-232q-28 0 -48 20
t-20 49v232q0 28 20 48t48 20h232q29 0 49 -20t20 -48v-232q0 -29 -20 -49t-49 -20zM159 309q-9 0 -15.5 -6.5t-6.5 -15.5v-232q0 -9 6.5 -15.5t15.5 -6.5h232q9 0 15.5 6.5t6.5 15.5v232q0 9 -6.5 15.5t-15.5 6.5h-232zM863 414h-232q-29 0 -49 20t-20 48v233q0 28 20 48
t49 20h232q28 0 48 -20t20 -48v-233q0 -28 -20 -48t-48 -20zM631 737q-9 0 -15.5 -6.5t-6.5 -15.5v-233q0 -9 6.5 -15t15.5 -6h232q9 0 15.5 6t6.5 15v233q0 9 -6.5 15.5t-15.5 6.5h-232zM611 95q-11 0 -18 7t-7 18v193q0 10 7 17.5t18 7.5q10 0 17.5 -7.5t7.5 -17.5v-193
q0 -11 -7.5 -18t-17.5 -7zM713 -15q-10 0 -17.5 7.5t-7.5 17.5v194q0 10 7.5 17.5t17.5 7.5t17.5 -7.5t7.5 -17.5v-194q0 -10 -7.5 -17.5t-17.5 -7.5zM809 -15q-10 0 -17.5 7.5t-7.5 17.5v105q0 10 7.5 17.5t17.5 7.5q11 0 18 -7.5t7 -17.5v-105q0 -10 -7 -17.5t-18 -7.5z
M809 179q-10 0 -17.5 7t-7.5 18v120q0 10 7.5 17.5t17.5 7.5q11 0 18 -7.5t7 -17.5v-120q0 -11 -7 -18t-18 -7zM908 95q-10 0 -17.5 7t-7.5 18v204q0 10 7.5 17.5t17.5 7.5t17.5 -7.5t7.5 -17.5v-204q0 -11 -7.5 -18t-17.5 -7zM611 -15q-11 0 -18 7.5t-7 17.5v27
q0 10 7 17.5t18 7.5q10 0 17.5 -7.5t7.5 -17.5v-27q0 -10 -7.5 -17.5t-17.5 -7.5zM908 -15q-10 0 -17.5 7.5t-7.5 17.5v27q0 10 7.5 17.5t17.5 7.5t17.5 -7.5t7.5 -17.5v-27q0 -10 -7.5 -17.5t-17.5 -7.5zM713 261q-10 0 -17.5 7.5t-7.5 17.5v27q0 10 7.5 17.5t17.5 7.5
t17.5 -7.5t7.5 -17.5v-27q0 -10 -7.5 -17.5t-17.5 -7.5zM234 640h82v-82h-82v82z" />
    <glyph glyph-name="uniE609" unicode="&#xe609;" 
d="M448 120v-248l-384 384l384 384v-254q93 -2 164 14.5t114 46t68.5 71t32.5 88t0.5 97.5t-23.5 99t-42 94q52 -56 89 -121t56 -130.5t20 -131t-15.5 -124.5t-55 -109.5t-94 -86.5t-136 -55.5t-178.5 -17.5z" />
    <glyph glyph-name="uniE60A" unicode="&#xe60a;" 
d="M959 -63l-535 446l535 448v-894zM959 -63z" />
    <glyph glyph-name="uniE60B" unicode="&#xe60b;" 
d="M64 -63v894l536 -448zM64 -63z" />
    <glyph glyph-name="uniE60C" unicode="&#xe60c;" 
d="M518 886q-101 0 -193.5 -39.5t-159 -106t-106 -159t-39.5 -193.5t39.5 -193.5t106 -159t159 -106t193.5 -39.5t193.5 39.5t159 106t106 159t39.5 193.5t-39.5 193.5t-106 159t-159 106t-193.5 39.5zM864 563l-413 -403q-11 -11 -27 -11t-27 11l-225 219q-11 11 -11 26.5
t11 26.5t27 11t27 -11l198 -193l386 377q11 11 27 11t27 -11t11 -26.5t-11 -26.5z" />
    <glyph glyph-name="uniE60E" unicode="&#xe60e;" 
d="M796 372l-259 259q-9 9 -23 9h-1q-1 1 -2 1q-6 0 -13 -3q-6 -2 -11 -7l-259 -259q-10 -10 -10 -23t9.5 -22.5t22.5 -9.5t23 9l206 207v-564q0 -13 9.5 -22.5t22.5 -9.5t22.5 9.5t9.5 22.5v565l208 -208q9 -9 22.5 -9t23 9.5t9.5 22.5t-10 23zM864 704h-704
q-13 0 -22.5 9.5t-9.5 22.5t9.5 22.5t22.5 9.5h704q13 0 22.5 -9.5t9.5 -22.5t-9.5 -22.5t-22.5 -9.5z" />
    <glyph glyph-name="uniE610" unicode="&#xe610;" 
d="M160 544q-13 0 -22.5 -9.5t-9.5 -22.5v-447q0 -13 9.5 -22t22.5 -9t22.5 9t9.5 22v447q0 13 -9.5 22.5t-22.5 9.5zM768 546h-154l-33 130q-6 21 -22.5 30t-35.5 4q-16 -4 -24 -15l-115 -149h-63q-26 0 -45 -18.5t-19 -45.5v-383q0 -26 19 -45t45 -19h447q79 0 135 56.5
t56 135.5v127q0 80 -56 136t-135 56zM896 192h-64v64h64v-64zM896 320h-64v63h64v-63z" />
    <glyph glyph-name="uniE611" unicode="&#xe611;" horiz-adv-x="1306" 
d="M972 -66h-620q-102 0 -174.5 72.5t-72.5 175.5v371q0 103 72.5 175.5t174.5 72.5h465q13 0 22 -9t9 -22t-9 -22t-22 -9h-465q-77 0 -131 -54.5t-54 -131.5v-371q0 -77 54 -131.5t131 -54.5h620q76 0 130.5 54.5t54.5 131.5v247q0 13 9 22t22 9t22 -9t9 -22v-247
q0 -103 -72.5 -175.5t-174.5 -72.5zM1243 781l-438 -438q-9 -9 -21.5 -9t-21.5 9t-9 22t9 22l438 438q9 9 21.5 9t21.5 -9t9 -22t-9 -22zM631 367h62v-61h-62v61zM507 367h62v-61h-62v61z" />
    <glyph glyph-name="uniE612" unicode="&#xe612;" horiz-adv-x="1337" 
d="M973 -128h-695q-115 0 -196.5 81.5t-81.5 196.5v417q0 115 81.5 196.5t196.5 81.5h347q15 0 25 -10.5t10 -24.5t-10 -24.5t-25 -10.5h-347q-86 0 -147.5 -61t-61.5 -147v-417q0 -86 61.5 -147t147.5 -61h695q86 0 147 61t61 147v139q0 14 10.5 24.5t24.5 10.5t24.5 -10.5
t10.5 -24.5v-139q0 -115 -81.5 -196.5t-196.5 -81.5zM1318.5 590q-12.5 -7 -26 -3.5t-21.5 16.5l-92 160q-11 -123 -75.5 -226.5t-168 -168t-226.5 -76.5q-7 -3 -14 -3h-35v69h35v2q112 9 205.5 68t149.5 154.5t61 208.5l-172 -99q-12 -7 -26 -3.5t-21 16t-3.5 26.5t16.5 21
l240 139q13 7 26.5 3.5t21.5 -16.5l139 -240q7 -13 3 -27t-16.5 -21zM521 358h70v-69h-70v69zM382 358h70v-69h-70v69z" />
    <glyph glyph-name="uniE613" unicode="&#xe613;" 
d="M160.5 544q-13.5 0 -22.5 -9t-9 -23v-446q0 -13 9 -22.5t22.5 -9.5t22.5 9.5t9 22.5v446q0 14 -9 23t-22.5 9zM537 681q11 0 14 -12l34 -130q2 -11 10.5 -17t19.5 -6h153q67 0 114 -47.5t47 -113.5v-128q0 -66 -47 -113.5t-114 -47.5h-447q-13 0 -23 10t-10 24v382
q0 14 10 24t23 10h64q15 0 24 12l114 148q4 3 8 4q3 1 6 1zM537 712q-7 0 -14 -2q-16 -4 -23 -15l-115 -149h-64q-26 0 -44.5 -18.5t-18.5 -45.5v-382q0 -27 18.5 -45.5t44.5 -18.5h447q79 0 135.5 56t56.5 135v128q0 79 -56.5 135t-135.5 56h-153l-34 131q-10 35 -44 35z
M831 384h64v-64h-64v64zM831 256h64v-64h-64v64z" />
    <glyph glyph-name="uniE614" unicode="&#xe614;" 
d="M821 610q45 0 76.5 -31.5t31.5 -76.5v-253q0 -45 -31.5 -76.5t-76.5 -31.5h-184q-10 0 -18 -5l-167 -117q-4 -2 -8 -5q-1 -1 -2 -1q-3 0 -4 3v2q0 4 -1 8v85q0 12 -9 21t-21 9h-138q-45 0 -76.5 31.5t-31.5 76.5v253q0 45 31.5 76.5t76.5 31.5h552zM821 640h-552
q-58 0 -98.5 -40.5t-40.5 -97.5v-253q0 -57 40.5 -97.5t98.5 -40.5h138v-93h1v0v-1q0 -14 10 -24t24 -10q11 0 21 7v-1l174 122h184q58 0 98.5 40.5t40.5 97.5v253q0 57 -40.5 97.5t-98.5 40.5zM320 448h63v-64h-63v64zM512 448h64v-63h-64v63zM704 448h64v-63h-64v63z" />
    <glyph glyph-name="uniE615" unicode="&#xe615;" 
d="M821 640h-552q-58 0 -98.5 -40.5t-40.5 -97.5v-253q0 -57 40.5 -97.5t98.5 -40.5h138v-93h1v0v-1q0 -14 10 -24t24 -10q11 0 21 7v-1l174 122h184q58 0 98.5 40.5t40.5 97.5v253q0 57 -40.5 97.5t-98.5 40.5zM383 384h-63v64h63v-64zM576 385h-64v63h64v-63zM768 385h-64
v63h64v-63z" />
    <glyph glyph-name="uniE616" unicode="&#xe616;" 
d="M618 486q7 -6 13 -13q6 -8 -1.5 -15t-14.5 1q-6 5 -11 11q-8 7 -1 14.5t15 1.5zM730 256q-5 3 -5 8v141q0 4 -0.5 12t-7.5 30t-19.5 42t-40 44.5t-64.5 41.5q-4 2 -6 7q-3 8 -7.5 16.5t-13 20t-24 18.5t-33.5 7q-14 0 -25.5 -4.5t-17.5 -8.5t-14 -17t-9.5 -16t-8.5 -18
q-1 -3 -5 -5q-10 -5 -21.5 -12.5t-33 -24t-37 -34.5t-27.5 -45t-12 -54v-141q0 -5 -5 -9q-56 -43 -72 -116q-1 -5 2 -9t8 -4h562q5 0 8.5 4t2.5 9q-15 73 -74 117zM325 240q4 3 4 8v155q0 29 15.5 56.5t39.5 47t39.5 29.5t28.5 17q4 1 5 5q2 5 5.5 15.5t6 16t7.5 12
t13.5 9.5t19.5 3q17 0 29 -11t15.5 -21t5.5 -21q1 -6 7 -8q35 -15 61.5 -35.5t38.5 -40t19 -36.5t8 -28l1 -10v-155q0 -5 5 -9q43 -32 60 -66q2 -5 -1 -10t-9 -5h-474q-6 0 -9 5t0 10q18 38 59 67zM443 91h10q9 0 10 -8q9 -40 48.5 -40t48.5 40q2 8 11 8h10q5 0 8 -4t2 -9
q-2 -10 -6.5 -20t-13 -21.5t-24 -18.5t-35.5 -7q-38 0 -56 21t-23 46q-1 5 2 9t8 4z" />
    <glyph glyph-name="uniE617" unicode="&#xe617;" 
d="M320 320h63v-63h-63v63zM448 320h64v-63h-64v63zM708 64h-413q-68 0 -116.5 48.5t-48.5 117.5v247q0 69 48.5 117.5t116.5 48.5h310q8 0 14.5 -6t6.5 -15t-6.5 -15t-14.5 -6h-310q-51 0 -87.5 -36t-36.5 -88v-247q0 -52 36.5 -88t87.5 -36h413q51 0 87.5 36t36.5 88v165
q0 8 6 14.5t14.5 6.5t14.5 -6.5t6 -14.5v-165q0 -69 -48 -117.5t-117 -48.5zM889 630l-292 -293q-6 -6 -14.5 -6t-14.5 6.5t-6 15t6 14.5l292 292q6 6 14.5 6t14.5 -6t6 -14.5t-6 -14.5z" />
    <glyph glyph-name="uniE618" unicode="&#xe618;" 
d="M512 833q93 0 174.5 -35.5t142.5 -96t96.5 -142.5t35.5 -174q0 -93 -35.5 -174.5t-96.5 -142.5t-142.5 -96t-174.5 -35q-92 0 -174 35t-142.5 96t-95.5 142.5t-35 174.5q0 92 35 174t95.5 142.5t142.5 96t174 35.5zM446 578h-192v-65h192v65zM639 450h-65v-128h65v128z
M767 450h-65v-128h65v128zM767 578h-193v-65h193v65zM895 322v256h-65v-256h65z" />
  </font>
</defs>
</svg>
